<?xml version="1.0" encoding="UTF-8" standalone="no"?>
<svg
   xmlns:dc="http://purl.org/dc/elements/1.1/"
   xmlns:cc="http://creativecommons.org/ns#"
   xmlns:rdf="http://www.w3.org/1999/02/22-rdf-syntax-ns#"
   xmlns:svg="http://www.w3.org/2000/svg"
   xmlns="http://www.w3.org/2000/svg"
   xmlns:sodipodi="http://sodipodi.sourceforge.net/DTD/sodipodi-0.dtd"
   xmlns:inkscape="http://www.inkscape.org/namespaces/inkscape"
   sodipodi:docname="hud_scaled.svg"
   inkscape:version="0.92.4 (5da689c313, 2019-01-14)"
   id="svg8"
   version="1.1"
   viewBox="0 0 185.20834 185.20833"
   height="700"
   width="700">
  <defs
     id="defs2">
    <clipPath
       clipPathUnits="userSpaceOnUse"
       id="clipPath34">
      <path
         d="M 0,999 H 1920 V 0 H 0 Z"
         id="path32"
         inkscape:connector-curvature="0" />
    </clipPath>
  </defs>
  <sodipodi:namedview
     inkscape:window-maximized="1"
     inkscape:window-y="-8"
     inkscape:window-x="1072"
     inkscape:window-height="1027"
     inkscape:window-width="1920"
     showgrid="false"
     inkscape:document-rotation="0"
     inkscape:current-layer="g18"
     inkscape:document-units="mm"
     inkscape:cy="314.8006"
     inkscape:cx="181.75831"
     inkscape:zoom="0.98994949"
     inkscape:pageshadow="2"
     inkscape:pageopacity="0.0"
     borderopacity="1.0"
     bordercolor="#666666"
     pagecolor="#ffffff"
     id="base"
     fit-margin-top="0"
     fit-margin-left="0"
     fit-margin-right="0"
     fit-margin-bottom="0"
     units="px"
     showguides="false"
     inkscape:guide-bbox="true">
    <sodipodi:guide
       position="100.16369,228.29761"
       orientation="1,0"
       id="guide1763"
       inkscape:locked="false" />
  </sodipodi:namedview>
  <metadata
     id="metadata5">
    <rdf:RDF>
      <cc:Work
         rdf:about="">
        <dc:format>image/svg+xml</dc:format>
        <dc:type
           rdf:resource="http://purl.org/dc/dcmitype/StillImage" />
        <dc:title />
      </cc:Work>
    </rdf:RDF>
  </metadata>
  <g
     id="layer1"
     inkscape:groupmode="layer"
     inkscape:label="Ebene 1"
     transform="translate(-51.896134,-20.454917)">
    <g
       id="g18"
       inkscape:label="hud"
       transform="matrix(0.35277777,0,0,-0.35277777,-80.257029,222.86595)">
      <g
         id="g20"
         transform="matrix(1.6541976,0,0,1.6541976,635.97289,572.36248)">
        <path
           d="M 0,0 -134.558,-77.688 -67.313,-116.511 0,-77.648 Z"
           style="fill:#008a00;fill-opacity:1;fill-rule:nonzero;stroke:none"
           id="path22"
           inkscape:connector-curvature="0" />
      </g>
      <g
         id="g24"
         transform="matrix(1.6541976,0,0,1.6541976,635.97289,572.36248)">
        <path
           d="M 0,0 -134.558,-77.688 -67.313,-116.511 0,-77.648 Z"
           style="fill:none;stroke:#000000;stroke-width:1;stroke-linecap:butt;stroke-linejoin:miter;stroke-miterlimit:10;stroke-dasharray:none;stroke-opacity:1"
           id="path26"
           inkscape:connector-curvature="0" />
      </g>
      <g
         id="g36"
         transform="matrix(1.6541976,0,0,1.6541976,566.01919,450.30735)">
        <path
           inkscape:connector-curvature="0"
           d="M 0,0 V -4.687 H -4.681 V -6.562 H 0 v -4.688 h 1.873 v 4.688 h 4.681 v 1.875 H 1.873 V 0 Z m 0.937,3.75 c 5.182,0 9.362,-4.187 9.362,-9.375 0,-5.189 -4.18,-9.375 -9.362,-9.375 -5.183,0 -9.363,4.186 -9.363,9.375 0,5.188 4.18,9.375 9.363,9.375 m -15.654,24.375 c -3.346,-0.063 -5.815,-1.103 -7.315,-3.105 -1.774,-2.367 -2.11,-6.029 -0.965,-10.606 -0.406,-0.513 -0.677,-1.297 -0.556,-2.314 0.238,-2.03 1.009,-2.854 1.668,-3.194 0.318,-1.63 1.199,-3.479 2.048,-4.306 0.161,-1.333 0.102,-1.99 -0.118,-3.135 -0.53,-1.319 -2.391,-2.069 -4.534,-2.93 -3.545,-1.421 -7.951,-3.182 -8.281,-8.789 l -0.058,-0.996 h 24.051 c 1.945,-3.358 5.566,-5.625 9.714,-5.625 6.195,0 11.235,5.046 11.235,11.25 0,6.023 -4.762,10.942 -10.709,11.221 -0.095,0.676 -0.095,1.35 0,1.963 0.772,0.743 1.481,2.35 1.756,3.72 0.589,0.325 1.254,1.091 1.463,2.842 0.102,0.875 -0.158,1.556 -0.498,2.022 0.596,2.168 1.13,6.1 -0.41,8.525 -0.662,1.043 -1.66,1.71 -2.896,1.963 -0.775,0.959 -2.228,1.494 -4.155,1.494 -1.547,-0.029 -2.871,-0.312 -3.979,-0.82 0.841,-0.528 1.576,-1.228 2.136,-2.11 2.176,-3.424 1.364,-8.408 0.878,-10.517 0.391,-0.835 0.526,-1.814 0.409,-2.813 C -4.085,9.704 -4.89,8.47 -5.706,7.764 -6.067,6.412 -6.737,4.841 -7.607,3.75 -7.64,3.219 -7.6,2.633 -7.49,2.08 -7.464,2.043 -7.402,1.992 -7.344,1.934 -7.765,1.472 -8.145,0.996 -8.485,0.469 c -0.369,0.318 -0.647,0.63 -0.79,0.996 -0.238,1.036 -0.27,2.156 -0.117,3.105 0.881,0.824 1.741,2.742 2.048,4.336 0.658,0.34 1.43,1.168 1.668,3.194 0.121,1.006 -0.187,1.772 -0.585,2.285 0.687,2.468 1.331,7.027 -0.439,9.814 -0.764,1.204 -1.876,1.951 -3.306,2.227 -0.864,1.101 -2.506,1.699 -4.711,1.699"
           style="fill:#ffffff;fill-opacity:1;fill-rule:nonzero;stroke:none"
           id="path38" />
      </g>
      <g
         id="g40"
         transform="matrix(1.6541976,0,0,1.6541976,566.01919,450.30735)">
        <path
           inkscape:connector-curvature="0"
           d="M 0,0 V -4.687 H -4.681 V -6.562 H 0 v -4.688 h 1.873 v 4.688 h 4.681 v 1.875 H 1.873 V 0 Z m 0.937,3.75 c 5.182,0 9.362,-4.187 9.362,-9.375 0,-5.189 -4.18,-9.375 -9.362,-9.375 -5.183,0 -9.363,4.186 -9.363,9.375 0,5.188 4.18,9.375 9.363,9.375 z m -15.654,24.375 c -3.346,-0.063 -5.815,-1.103 -7.315,-3.105 -1.774,-2.367 -2.11,-6.029 -0.965,-10.606 -0.406,-0.513 -0.677,-1.297 -0.556,-2.314 0.238,-2.03 1.009,-2.854 1.668,-3.194 0.318,-1.63 1.199,-3.479 2.048,-4.306 0.161,-1.333 0.102,-1.99 -0.118,-3.135 -0.53,-1.319 -2.391,-2.069 -4.534,-2.93 -3.545,-1.421 -7.951,-3.182 -8.281,-8.789 l -0.058,-0.996 h 24.051 c 1.945,-3.358 5.566,-5.625 9.714,-5.625 6.195,0 11.235,5.046 11.235,11.25 0,6.023 -4.762,10.942 -10.709,11.221 -0.095,0.676 -0.095,1.35 0,1.963 0.772,0.743 1.481,2.35 1.756,3.72 0.589,0.325 1.254,1.091 1.463,2.842 0.102,0.875 -0.158,1.556 -0.498,2.022 0.596,2.168 1.13,6.1 -0.41,8.525 -0.662,1.043 -1.66,1.71 -2.896,1.963 -0.775,0.959 -2.228,1.494 -4.155,1.494 -1.547,-0.029 -2.871,-0.312 -3.979,-0.82 0.841,-0.528 1.576,-1.228 2.136,-2.11 2.176,-3.424 1.364,-8.408 0.878,-10.517 0.391,-0.835 0.526,-1.814 0.409,-2.813 C -4.085,9.704 -4.89,8.47 -5.706,7.764 -6.067,6.412 -6.737,4.841 -7.607,3.75 -7.64,3.219 -7.6,2.633 -7.49,2.08 -7.464,2.043 -7.402,1.992 -7.344,1.934 -7.765,1.472 -8.145,0.996 -8.485,0.469 c -0.369,0.318 -0.647,0.63 -0.79,0.996 -0.238,1.036 -0.27,2.156 -0.117,3.105 0.881,0.824 1.741,2.742 2.048,4.336 0.658,0.34 1.43,1.168 1.668,3.194 0.121,1.006 -0.187,1.772 -0.585,2.285 0.687,2.468 1.331,7.027 -0.439,9.814 -0.764,1.204 -1.876,1.951 -3.306,2.227 -0.864,1.101 -2.506,1.699 -4.711,1.699 z"
           style="fill:none;stroke:#000000;stroke-width:0.5;stroke-linecap:butt;stroke-linejoin:miter;stroke-miterlimit:10;stroke-dasharray:none;stroke-opacity:1"
           id="path42" />
      </g>
      <g
         id="g44"
         transform="matrix(1.6541976,0,0,1.6541976,411.04238,180.06721)">
        <path
           inkscape:connector-curvature="0"
           d="M 0,0 V -0.003 L 0.001,-0.005 Z"
           style="fill:#000000;fill-opacity:1;fill-rule:nonzero;stroke:none"
           id="path46" />
      </g>
      <g
         id="g48"
         transform="matrix(1.6541976,0,0,1.6541976,638.31854,439.84736)">
        <path
           inkscape:connector-curvature="0"
           d="m 0,0 -67.313,-38.86 v -77.724 L 0,-155.446 l 67.311,38.861 v 77.725 z"
           style="fill:#e30000;fill-opacity:1;fill-rule:nonzero;stroke:none"
           id="path50" />
      </g>
      <g
         id="g52"
         transform="matrix(1.6541976,0,0,1.6541976,638.31854,439.84736)">
        <path
           inkscape:connector-curvature="0"
           d="m 0,0 -67.313,-38.86 v -77.724 L 0,-155.446 l 67.311,38.861 v 77.725 z"
           style="fill:none;stroke:#000000;stroke-width:1;stroke-linecap:butt;stroke-linejoin:miter;stroke-miterlimit:10;stroke-dasharray:none;stroke-opacity:1"
           id="path54" />
      </g>
      <g
         id="g56"
         transform="matrix(1.6541976,0,0,1.6541976,617.14597,262.5154)">
        <path
           inkscape:connector-curvature="0"
           d="m 0,0 c -2.938,0 -5.244,-2.301 -5.244,-5.245 v -2.247 h 38.815 v 2.247 c 0,2.944 -2.3,5.245 -5.244,5.245 z m -2.247,35.962 v -3.465 c 0,-8.839 7.339,-16.015 16.481,-16.015 2.247,0 4.337,0.469 6.134,1.218 L 2.107,35.962 Z m 9.645,2.997 H 8.99 c 0.901,0 1.498,-0.597 1.498,-1.498 0,-0.475 -0.175,-0.86 -0.468,-1.124 z m -9.645,1.358 v -1.358 h 1.357 z m -5.993,1.639 c -0.902,0 -1.499,-0.597 -1.499,-1.498 V 32.966 C -9.739,21.312 -1.317,11.53 9.739,9.412 V 2.996 h 8.99 v 6.416 c 2.604,0.515 5.033,1.463 7.351,2.716 l -2.247,2.247 c -2.845,-1.498 -6.152,-2.388 -9.599,-2.388 -11.536,0 -20.976,9.442 -20.976,20.979 v 7.492 c 0,0.901 -0.597,1.498 -1.498,1.498 m 9.645,2.997 H 8.99 c 0.825,0 1.498,-0.673 1.498,-1.499 0,-0.825 -0.673,-1.498 -1.498,-1.498 H 4.401 Z m -23.27,22.524 c -0.065,-0.012 -0.129,-0.03 -0.188,-0.047 -0.562,-0.1 -1.012,-0.509 -1.17,-1.054 -0.158,-0.55 0.006,-1.136 0.421,-1.522 L 49.116,-7.071 c 0.597,-0.597 1.557,-0.597 2.154,0 0.597,0.596 0.597,1.556 0,2.154 L 30.715,15.64 c 4.671,4.36 7.492,10.553 7.492,17.326 v 7.492 c 0,0.901 -0.598,1.498 -1.499,1.498 -0.901,0 -1.498,-0.597 -1.498,-1.498 v -7.492 c 0,-6.006 -2.564,-11.309 -6.648,-15.172 l -3.044,3.043 c 3.266,2.921 5.337,7.124 5.337,11.848 v 3.277 H 19.478 c -0.831,0 -1.499,0.674 -1.499,1.499 0,0.825 0.668,1.498 1.499,1.498 h 11.377 v 2.997 H 19.478 c -0.831,0 -1.499,0.673 -1.499,1.498 0,0.826 0.668,1.499 1.499,1.499 H 30.855 V 47.95 H 19.478 c -0.831,0 -1.499,0.673 -1.499,1.498 0,0.825 0.668,1.498 1.499,1.498 h 11.377 v 0.469 C 30.703,60.254 23.376,67.43 14.234,67.43 5.092,67.43 -2.247,60.254 -2.247,51.415 V 50.946 H 8.99 c 0.825,0 1.498,-0.673 1.498,-1.498 0,-0.825 -0.673,-1.498 -1.498,-1.498 H -1.592 l -19.056,19.058 c -0.31,0.334 -0.761,0.504 -1.217,0.469"
           style="fill:#ffffff;fill-opacity:1;fill-rule:nonzero;stroke:none"
           id="path58" />
      </g>
      <g
         id="g60"
         transform="matrix(1.6541976,0,0,1.6541976,640.66403,572.35934)">
        <path
           inkscape:connector-curvature="0"
           d="m 0,0 v -77.648 l 67.311,-38.866 67.245,38.827 z"
           style="fill:#0096bf;fill-opacity:1;fill-rule:nonzero;stroke:none"
           id="path62" />
      </g>
      <g
         id="g64"
         transform="matrix(1.6541976,0,0,1.6541976,640.66403,572.35934)">
        <path
           inkscape:connector-curvature="0"
           d="m 0,0 v -77.648 l 67.311,-38.866 67.245,38.827 z"
           style="fill:none;stroke:#000000;stroke-width:1;stroke-linecap:butt;stroke-linejoin:miter;stroke-miterlimit:10;stroke-dasharray:none;stroke-opacity:1"
           id="path66" />
      </g>
      <g
         id="g68"
         transform="matrix(1.6541976,0,0,1.6541976,718.12944,456.72696)">
        <path
           inkscape:connector-curvature="0"
           d="m 0,0 -14.991,-11.813 v -2.643 h 45 v 2.672 L 15.019,0 C 13.275,-1.519 12.02,-2.619 11.7,-2.896 9.974,-4.398 8.191,-4.557 7.509,-4.557 c -0.682,0 -2.464,0.156 -4.19,1.661 C 3.002,-2.623 1.747,-1.522 0,0 M 30.009,13.05 C 27.264,10.659 20.872,5.104 16.397,1.209 L 30.009,-9.506 Z m -45,0 V -9.534 L -1.378,1.209 c -4.412,3.84 -10.705,9.31 -13.613,11.841 m 0,4.893 V 15.44 C -12.28,13.082 3.27,-0.475 4.5,-1.547 5.766,-2.65 7.028,-2.756 7.509,-2.756 c 0.482,0 1.744,0.106 3.01,1.209 1.276,1.111 17.732,15.458 19.49,16.987 v 2.503 z"
           style="fill:#ffffff;fill-opacity:1;fill-rule:nonzero;stroke:none"
           id="path70" />
      </g>
      <g
         id="g72"
         transform="matrix(1.6541976,0,0,1.6541976,718.12944,456.72696)">
        <path
           inkscape:connector-curvature="0"
           d="m 0,0 -14.991,-11.813 v -2.643 h 45 v 2.672 L 15.019,0 C 13.275,-1.519 12.02,-2.619 11.7,-2.896 9.974,-4.398 8.191,-4.557 7.509,-4.557 c -0.682,0 -2.464,0.156 -4.19,1.661 C 3.002,-2.623 1.747,-1.522 0,0 Z M 30.009,13.05 C 27.264,10.659 20.872,5.104 16.397,1.209 L 30.009,-9.506 Z m -45,0 V -9.534 L -1.378,1.209 c -4.412,3.84 -10.705,9.31 -13.613,11.841 z m 0,4.893 V 15.44 C -12.28,13.082 3.27,-0.475 4.5,-1.547 5.766,-2.65 7.028,-2.756 7.509,-2.756 c 0.482,0 1.744,0.106 3.01,1.209 1.276,1.111 17.732,15.458 19.49,16.987 v 2.503 z"
           style="fill:none;stroke:#000000;stroke-width:0.5;stroke-linecap:butt;stroke-linejoin:miter;stroke-miterlimit:10;stroke-dasharray:none;stroke-opacity:1"
           id="path74" />
      </g>
      <g
         id="g76"
         transform="matrix(1.6541976,0,0,1.6541976,865.59223,439.7941)">
        <path
           inkscape:connector-curvature="0"
           d="m 0,0 -67.245,-38.828 v -77.725 L 0,-155.376 Z"
           style="fill:#0096bf;fill-opacity:1;fill-rule:nonzero;stroke:none"
           id="path78" />
      </g>
      <g
         id="g80"
         transform="matrix(1.6541976,0,0,1.6541976,865.59223,439.7941)">
        <path
           inkscape:connector-curvature="0"
           d="m 0,0 -67.245,-38.828 v -77.725 L 0,-155.376 Z"
           style="fill:none;stroke:#000000;stroke-width:1;stroke-linecap:butt;stroke-linejoin:miter;stroke-miterlimit:10;stroke-dasharray:none;stroke-opacity:1"
           id="path82" />
      </g>
      <g
         id="g84"
         transform="matrix(1.6541976,0,0,1.6541976,803.39572,344.62116)">
        <path
           inkscape:connector-curvature="0"
           d="m 0,0 c 6.868,0 12.599,-3.966 14.54,-9.383 0.006,-0.021 0.021,-0.035 0.028,-0.056 0.01,-0.029 0.017,-0.057 0.028,-0.084 0.123,-0.357 0.222,-0.706 0.31,-1.072 0.063,-0.254 0.095,-0.5 0.141,-0.76 0.01,-0.067 0.017,-0.13 0.028,-0.198 0.039,-0.239 0.088,-0.489 0.113,-0.732 0.003,-0.035 -0.004,-0.077 0,-0.113 0.028,-0.341 0.056,-0.694 0.056,-1.042 0,-0.462 -0.032,-0.902 -0.084,-1.353 -0.054,-0.458 -0.124,-0.909 -0.226,-1.353 -0.204,-0.874 -0.514,-1.705 -0.902,-2.507 -0.387,-0.803 -0.856,-1.568 -1.408,-2.283 -0.275,-0.356 -0.589,-0.711 -0.902,-1.043 -0.314,-0.331 -0.638,-0.655 -0.987,-0.958 -0.341,-0.299 -0.697,-0.602 -1.07,-0.873 -1.895,-1.37 -4.185,-2.342 -6.678,-2.79 -0.997,-0.179 -2.015,-0.282 -3.072,-0.282 -0.609,0 -1.215,0.032 -1.803,0.085 -0.029,0.004 -0.056,-0.004 -0.085,0 -0.077,0.007 -0.151,0.022 -0.225,0.028 -0.208,0.025 -0.423,0.053 -0.62,0.084 -0.268,0.043 -0.514,0.085 -0.761,0.142 l -0.281,0.084 -0.283,-0.112 c -1.162,-0.49 -3.532,-1.487 -5.917,-2.142 -1.194,-0.327 -2.398,-0.574 -3.409,-0.648 -0.448,-0.032 -0.634,0.102 -0.987,0.141 0.289,0.225 0.532,0.405 0.902,0.704 1.201,0.98 2.68,2.396 3.156,4.509 l 0.113,0.535 -0.395,0.367 c -2.884,2.461 -4.649,5.888 -4.649,9.665 C -15.329,-6.058 -8.496,0 0,0 m 0,1.804 c -9.359,0 -17.132,-6.756 -17.132,-15.244 0,-4.108 1.842,-7.831 4.79,-10.567 -0.433,-1.279 -1.353,-2.297 -2.339,-3.099 -0.549,-0.448 -1.085,-0.832 -1.522,-1.212 -0.218,-0.191 -0.419,-0.36 -0.591,-0.62 -0.173,-0.261 -0.349,-0.711 -0.226,-1.156 l 0.113,-0.338 0.31,-0.197 c 0.937,-0.532 2.075,-0.592 3.269,-0.507 1.194,0.084 2.483,0.356 3.747,0.704 1.744,0.479 3.237,1.05 4.48,1.55 2.516,-5.833 8.782,-9.722 15.921,-9.722 1.212,0 2.434,0.166 3.578,0.338 1.233,-0.546 6.612,-2.845 10.342,-2.845 1.071,0 1.902,0.19 2.564,0.563 l 0.338,0.197 0.085,0.338 c 0.264,0.966 -0.553,1.642 -1.606,2.481 -1.06,0.842 -2.462,1.962 -3.072,3.521 3.072,2.832 4.819,6.679 4.819,10.652 0,6.488 -4.734,12.349 -11.553,14.427 C 14.163,-2.68 7.625,1.804 0,1.804"
           style="fill:#ffffff;fill-opacity:1;fill-rule:nonzero;stroke:none"
           id="path86" />
      </g>
      <g
         id="g88"
         transform="matrix(1.6541976,0,0,1.6541976,803.39572,344.62116)">
        <path
           inkscape:connector-curvature="0"
           d="m 0,0 c 6.868,0 12.599,-3.966 14.54,-9.383 0.006,-0.021 0.021,-0.035 0.028,-0.056 0.01,-0.029 0.017,-0.057 0.028,-0.084 0.123,-0.357 0.222,-0.706 0.31,-1.072 0.063,-0.254 0.095,-0.5 0.141,-0.76 0.01,-0.067 0.017,-0.13 0.028,-0.198 0.039,-0.239 0.088,-0.489 0.113,-0.732 0.003,-0.035 -0.004,-0.077 0,-0.113 0.028,-0.341 0.056,-0.694 0.056,-1.042 0,-0.462 -0.032,-0.902 -0.084,-1.353 -0.054,-0.458 -0.124,-0.909 -0.226,-1.353 -0.204,-0.874 -0.514,-1.705 -0.902,-2.507 -0.387,-0.803 -0.856,-1.568 -1.408,-2.283 -0.275,-0.356 -0.589,-0.711 -0.902,-1.043 -0.314,-0.331 -0.638,-0.655 -0.987,-0.958 -0.341,-0.299 -0.697,-0.602 -1.07,-0.873 -1.895,-1.37 -4.185,-2.342 -6.678,-2.79 -0.997,-0.179 -2.015,-0.282 -3.072,-0.282 -0.609,0 -1.215,0.032 -1.803,0.085 -0.029,0.004 -0.056,-0.004 -0.085,0 -0.077,0.007 -0.151,0.022 -0.225,0.028 -0.208,0.025 -0.423,0.053 -0.62,0.084 -0.268,0.043 -0.514,0.085 -0.761,0.142 l -0.281,0.084 -0.283,-0.112 c -1.162,-0.49 -3.532,-1.487 -5.917,-2.142 -1.194,-0.327 -2.398,-0.574 -3.409,-0.648 -0.448,-0.032 -0.634,0.102 -0.987,0.141 0.289,0.225 0.532,0.405 0.902,0.704 1.201,0.98 2.68,2.396 3.156,4.509 l 0.113,0.535 -0.395,0.367 c -2.884,2.461 -4.649,5.888 -4.649,9.665 C -15.329,-6.058 -8.496,0 0,0 Z m 0,1.804 c -9.359,0 -17.132,-6.756 -17.132,-15.244 0,-4.108 1.842,-7.831 4.79,-10.567 -0.433,-1.279 -1.353,-2.297 -2.339,-3.099 -0.549,-0.448 -1.085,-0.832 -1.522,-1.212 -0.218,-0.191 -0.419,-0.36 -0.591,-0.62 -0.173,-0.261 -0.349,-0.711 -0.226,-1.156 l 0.113,-0.338 0.31,-0.197 c 0.937,-0.532 2.075,-0.592 3.269,-0.507 1.194,0.084 2.483,0.356 3.747,0.704 1.744,0.479 3.237,1.05 4.48,1.55 2.516,-5.833 8.782,-9.722 15.921,-9.722 1.212,0 2.434,0.166 3.578,0.338 1.233,-0.546 6.612,-2.845 10.342,-2.845 1.071,0 1.902,0.19 2.564,0.563 l 0.338,0.197 0.085,0.338 c 0.264,0.966 -0.553,1.642 -1.606,2.481 -1.06,0.842 -2.462,1.962 -3.072,3.521 3.072,2.832 4.819,6.679 4.819,10.652 0,6.488 -4.734,12.349 -11.553,14.427 C 14.163,-2.68 7.625,1.804 0,1.804 Z"
           style="fill:none;stroke:#000000;stroke-width:0.5;stroke-linecap:butt;stroke-linejoin:miter;stroke-miterlimit:10;stroke-dasharray:none;stroke-opacity:1"
           id="path90" />
      </g>
      <g
         id="g92"
         transform="matrix(1.6541976,0,0,1.6541976,752.00261,242.93168)">
        <path
           inkscape:connector-curvature="0"
           d="m 0,0 -67.307,-38.864 v -77.647 l 134.555,77.687 z"
           style="fill:#6600bf;fill-opacity:1;fill-rule:nonzero;stroke:none"
           id="path94" />
      </g>
      <g
         id="g96"
         transform="matrix(1.6541976,0,0,1.6541976,752.00261,242.93168)">
        <path
           inkscape:connector-curvature="0"
           d="m 0,0 -67.307,-38.864 v -77.647 l 134.555,77.687 z"
           style="fill:none;stroke:#000000;stroke-width:1;stroke-linecap:butt;stroke-linejoin:miter;stroke-miterlimit:10;stroke-dasharray:none;stroke-opacity:1"
           id="path98" />
      </g>
      <g
         id="g100"
         transform="matrix(1.6541976,0,0,1.6541976,704.82076,162.3266)">
        <path
           inkscape:connector-curvature="0"
           d="m 0,0 c -0.417,0 -0.768,-0.282 -0.854,-0.688 l -2.644,-12.338 c -0.055,-0.262 -0.003,-0.537 0.166,-0.744 0.168,-0.207 0.42,-0.331 0.688,-0.331 h 35.25 c 0.269,0 0.52,0.124 0.689,0.331 0.169,0.207 0.22,0.482 0.165,0.744 L 30.816,-0.688 C 30.73,-0.279 30.379,0 29.963,0 h -3.525 v -5.288 c 0.971,0 1.762,-0.792 1.762,-1.763 0,-0.97 -0.791,-1.762 -1.762,-1.762 H 3.525 c -0.971,0 -1.762,0.792 -1.762,1.762 0,0.971 0.791,1.763 1.762,1.763 V 0 Z M 0.881,22.912 C 0.393,22.912 0,22.517 0,22.031 V 13.329 C 0,8.165 1.894,6.413 3.883,4.571 4.348,4.141 4.816,3.697 5.288,3.194 V -7.051 H 24.675 V 8.813 c 0,0.488 -0.392,0.88 -0.881,0.88 h -0.055 c -0.265,2.252 -1.494,4.331 -2.781,5.867 -1.436,1.711 -6.197,7.049 -6.197,7.049 -0.196,0.231 -0.499,0.348 -0.799,0.303 -0.32,-0.048 -0.588,-0.268 -0.695,-0.574 -0.11,-0.304 -0.045,-0.645 0.172,-0.885 0,0 4.771,-5.419 6.142,-7.051 1.084,-1.29 2.086,-3.039 2.368,-4.709 H 11.484 l -0.551,1.212 C 10.73,11.346 10.189,11.549 9.749,11.346 9.305,11.143 9.133,10.634 9.336,10.189 L 13.109,2.01 c 1.525,-2.857 1.807,-4.434 0.936,-5.095 -0.499,-0.378 -1.091,-0.537 -1.708,-0.44 -0.932,0.144 -1.851,0.801 -2.588,1.844 C 8.269,0.413 7.253,3.521 7.243,3.553 L 7.188,3.718 7.078,3.855 C 6.403,4.65 5.718,5.263 5.067,5.865 3.15,7.642 1.763,8.937 1.763,13.329 v 8.702 c 0,0.486 -0.393,0.881 -0.882,0.881"
           style="fill:#ffffff;fill-opacity:1;fill-rule:nonzero;stroke:none"
           id="path102" />
      </g>
      <g
         id="g104"
         transform="matrix(1.6541976,0,0,1.6541976,704.82076,162.3266)">
        <path
           inkscape:connector-curvature="0"
           d="m 0,0 c -0.417,0 -0.768,-0.282 -0.854,-0.688 l -2.644,-12.338 c -0.055,-0.262 -0.003,-0.537 0.166,-0.744 0.168,-0.207 0.42,-0.331 0.688,-0.331 h 35.25 c 0.269,0 0.52,0.124 0.689,0.331 0.169,0.207 0.22,0.482 0.165,0.744 L 30.816,-0.688 C 30.73,-0.279 30.379,0 29.963,0 h -3.525 v -5.288 c 0.971,0 1.762,-0.792 1.762,-1.763 0,-0.97 -0.791,-1.762 -1.762,-1.762 H 3.525 c -0.971,0 -1.762,0.792 -1.762,1.762 0,0.971 0.791,1.763 1.762,1.763 V 0 Z M 0.881,22.912 C 0.393,22.912 0,22.517 0,22.031 V 13.329 C 0,8.165 1.894,6.413 3.883,4.571 4.348,4.141 4.816,3.697 5.288,3.194 V -7.051 H 24.675 V 8.813 c 0,0.488 -0.392,0.88 -0.881,0.88 h -0.055 c -0.265,2.252 -1.494,4.331 -2.781,5.867 -1.436,1.711 -6.197,7.049 -6.197,7.049 -0.196,0.231 -0.499,0.348 -0.799,0.303 -0.32,-0.048 -0.588,-0.268 -0.695,-0.574 -0.11,-0.304 -0.045,-0.645 0.172,-0.885 0,0 4.771,-5.419 6.142,-7.051 1.084,-1.29 2.086,-3.039 2.368,-4.709 H 11.484 l -0.551,1.212 C 10.73,11.346 10.189,11.549 9.749,11.346 9.305,11.143 9.133,10.634 9.336,10.189 L 13.109,2.01 c 1.525,-2.857 1.807,-4.434 0.936,-5.095 -0.499,-0.378 -1.091,-0.537 -1.708,-0.44 -0.932,0.144 -1.851,0.801 -2.588,1.844 C 8.269,0.413 7.253,3.521 7.243,3.553 L 7.188,3.718 7.078,3.855 C 6.403,4.65 5.718,5.263 5.067,5.865 3.15,7.642 1.763,8.937 1.763,13.329 v 8.702 c 0,0.486 -0.393,0.881 -0.882,0.881 z"
           style="fill:none;stroke:#000000;stroke-width:0.5;stroke-linecap:butt;stroke-linejoin:miter;stroke-miterlimit:10;stroke-dasharray:none;stroke-opacity:1"
           id="path106" />
      </g>
      <g
         id="g108"
         transform="matrix(1.6541976,0,0,1.6541976,524.6272,242.93334)">
        <path
           inkscape:connector-curvature="0"
           d="m 0,0 -67.245,-38.827 134.556,-77.687 v 77.648 z"
           style="fill:#d40b00;fill-opacity:1;fill-rule:nonzero;stroke:none"
           id="path110" />
      </g>
      <g
         id="g112"
         transform="matrix(1.6541976,0,0,1.6541976,524.6272,242.93334)">
        <path
           inkscape:connector-curvature="0"
           d="m 0,0 -67.245,-38.827 134.556,-77.687 v 77.648 z"
           style="fill:none;stroke:#000000;stroke-width:1;stroke-linecap:butt;stroke-linejoin:miter;stroke-miterlimit:10;stroke-dasharray:none;stroke-opacity:1"
           id="path114" />
      </g>
      <g
         id="g116"
         transform="matrix(1.6541976,0,0,1.6541976,555.18138,160.71128)">
        <path
           inkscape:connector-curvature="0"
           d="m 0,0 c 0,-0.518 -0.42,-0.937 -0.937,-0.937 h -1.877 c -0.519,0 -0.936,0.419 -0.936,0.937 v 13.124 c 0,0.518 0.419,0.938 0.936,0.938 h 1.878 C -0.418,14.062 0,13.642 0,13.124 Z m 0,-6.562 c 0,-0.517 -0.418,-0.937 -0.935,-0.937 h -1.879 c -0.517,0 -0.936,0.42 -0.936,0.937 v 1.875 c 0,0.517 0.419,0.937 0.936,0.937 h 1.878 C -0.418,-3.75 0,-4.17 0,-4.687 Z M 20.241,-8.809 0.597,25.74 c -0.514,0.905 -1.438,1.445 -2.472,1.445 -1.034,0 -1.958,-0.54 -2.471,-1.445 L -23.991,-8.809 c -0.517,-0.908 -0.511,-1.991 0.015,-2.894 0.518,-0.89 1.435,-1.421 2.457,-1.421 H 17.77 c 1.021,0 1.939,0.531 2.457,1.421 0.526,0.903 0.532,1.984 0.014,2.894"
           style="fill:#ffffff;fill-opacity:1;fill-rule:nonzero;stroke:none"
           id="path118" />
      </g>
      <g
         id="g120"
         transform="matrix(1.6541976,0,0,1.6541976,555.18138,160.71128)">
        <path
           inkscape:connector-curvature="0"
           d="m 0,0 c 0,-0.518 -0.42,-0.937 -0.937,-0.937 h -1.877 c -0.519,0 -0.936,0.419 -0.936,0.937 v 13.124 c 0,0.518 0.419,0.938 0.936,0.938 h 1.878 C -0.418,14.062 0,13.642 0,13.124 Z m 0,-6.562 c 0,-0.517 -0.418,-0.937 -0.935,-0.937 h -1.879 c -0.517,0 -0.936,0.42 -0.936,0.937 v 1.875 c 0,0.517 0.419,0.937 0.936,0.937 h 1.878 C -0.418,-3.75 0,-4.17 0,-4.687 Z M 20.241,-8.809 0.597,25.74 c -0.514,0.905 -1.438,1.445 -2.472,1.445 -1.034,0 -1.958,-0.54 -2.471,-1.445 L -23.991,-8.809 c -0.517,-0.908 -0.511,-1.991 0.015,-2.894 0.518,-0.89 1.435,-1.421 2.457,-1.421 H 17.77 c 1.021,0 1.939,0.531 2.457,1.421 0.526,0.903 0.532,1.984 0.014,2.894 z"
           style="fill:none;stroke:#000000;stroke-width:0.5;stroke-linecap:butt;stroke-linejoin:miter;stroke-miterlimit:10;stroke-dasharray:none;stroke-opacity:1"
           id="path122" />
      </g>
      <g
         id="g124"
         transform="matrix(1.6541976,0,0,1.6541976,411.04238,439.7941)">
        <path
           inkscape:connector-curvature="0"
           d="m 0,0 v -155.376 l 67.247,38.823 v 77.725 z"
           style="fill:#d4b300;fill-opacity:1;fill-rule:nonzero;stroke:none"
           id="path126" />
      </g>
      <g
         id="g128"
         transform="matrix(1.6541976,0,0,1.6541976,411.04238,439.7941)">
        <path
           inkscape:connector-curvature="0"
           d="m 0,0 v -155.376 l 67.247,38.823 v 77.725 z"
           style="fill:none;stroke:#000000;stroke-width:1;stroke-linecap:butt;stroke-linejoin:miter;stroke-miterlimit:10;stroke-dasharray:none;stroke-opacity:1"
           id="path130" />
      </g>
      <g
         id="g132"
         transform="matrix(1.6541976,0,0,1.6541976,473.13533,290.24107)">
        <path
           inkscape:connector-curvature="0"
           d="m 0,0 h -7.826 v 1.956 h 1.956 v 12.718 h -1.956 v 1.957 h 5.869 V 1.956 H 0 Z m -3.913,26.413 c 1.621,0 2.934,-1.313 2.934,-2.934 0,-1.623 -1.313,-2.936 -2.934,-2.936 -1.622,0 -2.935,1.313 -2.935,2.936 0,1.621 1.313,2.934 2.935,2.934 m 0,8.805 c -12.427,0 -22.5,-10.073 -22.5,-22.5 0,-12.428 10.073,-22.5 22.5,-22.5 12.427,0 22.5,10.072 22.5,22.5 0,12.427 -10.073,22.5 -22.5,22.5"
           style="fill:#ffffff;fill-opacity:1;fill-rule:nonzero;stroke:none"
           id="path134" />
      </g>
      <g
         id="g136"
         transform="matrix(1.6541976,0,0,1.6541976,473.13533,290.24107)">
        <path
           inkscape:connector-curvature="0"
           d="m 0,0 h -7.826 v 1.956 h 1.956 v 12.718 h -1.956 v 1.957 h 5.869 V 1.956 H 0 Z m -3.913,26.413 c 1.621,0 2.934,-1.313 2.934,-2.934 0,-1.623 -1.313,-2.936 -2.934,-2.936 -1.622,0 -2.935,1.313 -2.935,2.936 0,1.621 1.313,2.934 2.935,2.934 z m 0,8.805 c -12.427,0 -22.5,-10.073 -22.5,-22.5 0,-12.428 10.073,-22.5 22.5,-22.5 12.427,0 22.5,10.072 22.5,22.5 0,12.427 -10.073,22.5 -22.5,22.5 z"
           style="fill:none;stroke:#000000;stroke-width:0.5;stroke-linecap:butt;stroke-linejoin:miter;stroke-miterlimit:10;stroke-dasharray:none;stroke-opacity:1"
           id="path138" />
      </g>
    </g>
  </g>
</svg>
