<?xml version="1.0" encoding="UTF-8" standalone="no"?>
<svg
   xmlns:dc="http://purl.org/dc/elements/1.1/"
   xmlns:cc="http://creativecommons.org/ns#"
   xmlns:rdf="http://www.w3.org/1999/02/22-rdf-syntax-ns#"
   xmlns:svg="http://www.w3.org/2000/svg"
   xmlns="http://www.w3.org/2000/svg"
   xmlns:sodipodi="http://sodipodi.sourceforge.net/DTD/sodipodi-0.dtd"
   xmlns:inkscape="http://www.inkscape.org/namespaces/inkscape"
   viewBox="0 0 240 240"
   width="240px"
   height="240px"
   version="1.1"
   id="svg5"
   sodipodi:docname="icons8-chain_red.svg"
   inkscape:version="1.0.2 (e86c870879, 2021-01-15, custom)">
  <metadata
     id="metadata11">
    <rdf:RDF>
      <cc:Work
         rdf:about="">
        <dc:format>image/svg+xml</dc:format>
        <dc:type
           rdf:resource="http://purl.org/dc/dcmitype/StillImage" />
        <dc:title></dc:title>
      </cc:Work>
    </rdf:RDF>
  </metadata>
  <defs
     id="defs9" />
  <sodipodi:namedview
     pagecolor="#ffffff"
     bordercolor="#666666"
     borderopacity="1"
     objecttolerance="10"
     gridtolerance="10"
     guidetolerance="10"
     inkscape:pageopacity="0"
     inkscape:pageshadow="2"
     inkscape:window-width="1920"
     inkscape:window-height="1027"
     id="namedview7"
     showgrid="false"
     inkscape:zoom="1.7916667"
     inkscape:cx="85.426074"
     inkscape:cy="133.17928"
     inkscape:window-x="1072"
     inkscape:window-y="-8"
     inkscape:window-maximized="1"
     inkscape:current-layer="svg5" />
  <g
     id="surface23444677"
     style="fill:#cf0000;fill-opacity:1">
    <path
       style="stroke:none;fill-rule:nonzero;fill:#cf0000;fill-opacity:1"
       d="M 187.199219 9.617188 C 175.652344 9.617188 164.800781 14.105469 156.65625 22.257812 L 127.855469 51.054688 C 123.527344 55.386719 120.335938 60.410156 118.226562 65.773438 C 125.148438 60.496094 133.539062 57.601562 142.398438 57.601562 C 144.300781 57.601562 146.179688 57.757812 148.03125 58.023438 L 170.230469 35.832031 C 174.757812 31.304688 180.78125 28.820312 187.199219 28.820312 C 193.617188 28.820312 199.648438 31.308594 204.167969 35.832031 C 213.523438 45.191406 213.523438 60.410156 204.167969 69.769531 L 175.367188 98.570312 C 166.011719 107.925781 150.785156 107.925781 141.429688 98.570312 C 141.042969 98.179688 140.765625 97.738281 140.410156 97.332031 L 126.777344 110.953125 C 127.144531 111.347656 127.476562 111.761719 127.855469 112.144531 C 136.277344 120.566406 147.339844 124.78125 158.398438 124.78125 C 169.460938 124.78125 180.523438 120.566406 188.945312 112.144531 L 217.742188 83.34375 C 234.589844 66.5 234.589844 39.097656 217.742188 22.257812 C 209.597656 14.105469 198.75 9.617188 187.199219 9.617188 Z M 142.40625 67.199219 C 134.289062 67.199219 126.648438 70.367188 120.910156 76.105469 L 76.105469 120.898438 C 64.253906 132.75 64.257812 152.03125 76.117188 163.894531 C 79.730469 167.503906 84.09375 170.089844 88.855469 171.515625 L 91.78125 168.582031 C 95.941406 164.417969 97.007812 158.324219 94.996094 153.160156 C 93.023438 152.714844 91.164062 151.792969 89.691406 150.320312 C 85.324219 145.949219 85.316406 138.839844 89.679688 134.476562 L 134.484375 89.679688 C 136.601562 87.570312 139.414062 86.390625 142.40625 86.390625 C 145.398438 86.390625 148.203125 87.5625 150.320312 89.679688 C 151.808594 91.167969 152.800781 93.019531 153.273438 95.015625 C 154.882812 95.644531 156.609375 95.980469 158.398438 95.980469 C 162.253906 95.980469 165.871094 94.492188 168.582031 91.78125 L 171.523438 88.847656 C 170.097656 84.089844 167.507812 79.714844 163.894531 76.097656 C 158.148438 70.359375 150.519531 67.199219 142.40625 67.199219 Z M 65.785156 118.21875 C 60.328125 120.359375 55.320312 123.589844 51.054688 127.855469 L 22.257812 156.65625 C 5.410156 173.5 5.410156 200.910156 22.257812 217.753906 C 30.675781 226.175781 41.742188 230.382812 52.800781 230.382812 C 63.859375 230.382812 74.925781 226.175781 83.34375 217.753906 L 112.144531 188.953125 C 128.992188 172.105469 128.992188 144.699219 112.144531 127.855469 C 111.765625 127.476562 111.347656 127.144531 110.953125 126.777344 L 97.320312 140.410156 C 97.726562 140.765625 98.183594 141.046875 98.570312 141.429688 C 107.925781 150.792969 107.925781 166.007812 98.570312 175.367188 L 69.769531 204.167969 C 60.414062 213.523438 45.1875 213.523438 35.832031 204.167969 C 26.476562 194.808594 26.476562 179.589844 35.832031 170.230469 L 58.078125 147.984375 C 56.617188 137.660156 59.179688 126.902344 65.785156 118.21875 Z M 129.890625 125.953125 L 125.945312 129.898438 C 129.828125 135.941406 132.367188 142.605469 133.539062 149.457031 L 149.410156 133.585938 C 142.421875 132.382812 135.8125 129.792969 129.890625 125.953125 Z M 129.890625 125.953125 "
       id="path2" />
  </g>
</svg>
