<?xml version="1.0" encoding="UTF-8" standalone="no"?>
<svg
   xmlns:dc="http://purl.org/dc/elements/1.1/"
   xmlns:cc="http://creativecommons.org/ns#"
   xmlns:rdf="http://www.w3.org/1999/02/22-rdf-syntax-ns#"
   xmlns:svg="http://www.w3.org/2000/svg"
   xmlns="http://www.w3.org/2000/svg"
   xmlns:sodipodi="http://sodipodi.sourceforge.net/DTD/sodipodi-0.dtd"
   xmlns:inkscape="http://www.inkscape.org/namespaces/inkscape"
   sodipodi:docname="information.svg"
   inkscape:version="0.92.4 (5da689c313, 2019-01-14)"
   id="svg8"
   version="1.1"
   viewBox="0 0 185.20834 185.20833"
   height="700"
   width="700">
  <defs
     id="defs2">
    <clipPath
       clipPathUnits="userSpaceOnUse"
       id="clipPath34">
      <path
         d="M 0,999 H 1920 V 0 H 0 Z"
         id="path32"
         inkscape:connector-curvature="0" />
    </clipPath>
  </defs>
  <sodipodi:namedview
     inkscape:window-maximized="1"
     inkscape:window-y="-8"
     inkscape:window-x="1072"
     inkscape:window-height="1027"
     inkscape:window-width="1920"
     showgrid="false"
     inkscape:document-rotation="0"
     inkscape:current-layer="g18"
     inkscape:document-units="mm"
     inkscape:cy="311.77014"
     inkscape:cx="235.80147"
     inkscape:zoom="0.98994949"
     inkscape:pageshadow="2"
     inkscape:pageopacity="0.0"
     borderopacity="1.0"
     bordercolor="#666666"
     pagecolor="#ffffff"
     id="base"
     fit-margin-top="0"
     fit-margin-left="0"
     fit-margin-right="0"
     fit-margin-bottom="0"
     units="px"
     showguides="false"
     inkscape:guide-bbox="true">
    <sodipodi:guide
       position="100.16369,228.29761"
       orientation="1,0"
       id="guide1763"
       inkscape:locked="false" />
  </sodipodi:namedview>
  <metadata
     id="metadata5">
    <rdf:RDF>
      <cc:Work
         rdf:about="">
        <dc:format>image/svg+xml</dc:format>
        <dc:type
           rdf:resource="http://purl.org/dc/dcmitype/StillImage" />
        <dc:title></dc:title>
      </cc:Work>
    </rdf:RDF>
  </metadata>
  <g
     id="layer1"
     inkscape:groupmode="layer"
     inkscape:label="Ebene 1"
     transform="translate(-51.896134,-20.454917)">
    <g
       id="g18"
       inkscape:label="hud"
       transform="matrix(0.35277777,0,0,-0.35277777,-80.257029,222.86595)">
      <g
         id="g124"
         transform="matrix(1.6541976,0,0,1.6541976,411.04238,439.7941)">
        <path
           inkscape:connector-curvature="0"
           d="m 0,0 v -155.376 l 67.247,38.823 v 77.725 z"
           style="fill:#d4b300;fill-opacity:1;fill-rule:nonzero;stroke:none"
           id="path126" />
      </g>
      <g
         id="g128"
         transform="matrix(1.6541976,0,0,1.6541976,411.04238,439.7941)">
        <path
           inkscape:connector-curvature="0"
           d="m 0,0 v -155.376 l 67.247,38.823 v 77.725 z"
           style="fill:none;stroke:#000000;stroke-width:1;stroke-linecap:butt;stroke-linejoin:miter;stroke-miterlimit:10;stroke-dasharray:none;stroke-opacity:1"
           id="path130" />
      </g>
      <g
         id="g132"
         transform="matrix(1.6541976,0,0,1.6541976,473.13533,290.24107)">
        <path
           inkscape:connector-curvature="0"
           d="m 0,0 h -7.826 v 1.956 h 1.956 v 12.718 h -1.956 v 1.957 h 5.869 V 1.956 H 0 Z m -3.913,26.413 c 1.621,0 2.934,-1.313 2.934,-2.934 0,-1.623 -1.313,-2.936 -2.934,-2.936 -1.622,0 -2.935,1.313 -2.935,2.936 0,1.621 1.313,2.934 2.935,2.934 m 0,8.805 c -12.427,0 -22.5,-10.073 -22.5,-22.5 0,-12.428 10.073,-22.5 22.5,-22.5 12.427,0 22.5,10.072 22.5,22.5 0,12.427 -10.073,22.5 -22.5,22.5"
           style="fill:#ffffff;fill-opacity:1;fill-rule:nonzero;stroke:none"
           id="path134" />
      </g>
      <g
         id="g136"
         transform="matrix(1.6541976,0,0,1.6541976,473.13533,290.24107)">
        <path
           inkscape:connector-curvature="0"
           d="m 0,0 h -7.826 v 1.956 h 1.956 v 12.718 h -1.956 v 1.957 h 5.869 V 1.956 H 0 Z m -3.913,26.413 c 1.621,0 2.934,-1.313 2.934,-2.934 0,-1.623 -1.313,-2.936 -2.934,-2.936 -1.622,0 -2.935,1.313 -2.935,2.936 0,1.621 1.313,2.934 2.935,2.934 z m 0,8.805 c -12.427,0 -22.5,-10.073 -22.5,-22.5 0,-12.428 10.073,-22.5 22.5,-22.5 12.427,0 22.5,10.072 22.5,22.5 0,12.427 -10.073,22.5 -22.5,22.5 z"
           style="fill:none;stroke:#000000;stroke-width:0.5;stroke-linecap:butt;stroke-linejoin:miter;stroke-miterlimit:10;stroke-dasharray:none;stroke-opacity:1"
           id="path138" />
      </g>
    </g>
  </g>
</svg>
