<?xml version="1.0" encoding="UTF-8" standalone="no"?>
<svg
   xmlns:dc="http://purl.org/dc/elements/1.1/"
   xmlns:cc="http://creativecommons.org/ns#"
   xmlns:rdf="http://www.w3.org/1999/02/22-rdf-syntax-ns#"
   xmlns:svg="http://www.w3.org/2000/svg"
   xmlns="http://www.w3.org/2000/svg"
   xmlns:sodipodi="http://sodipodi.sourceforge.net/DTD/sodipodi-0.dtd"
   xmlns:inkscape="http://www.inkscape.org/namespaces/inkscape"
   sodipodi:docname="notifications.svg"
   inkscape:version="0.92.4 (5da689c313, 2019-01-14)"
   id="svg8"
   version="1.1"
   viewBox="0 0 185.20834 185.20833"
   height="700"
   width="700">
  <defs
     id="defs2">
    <clipPath
       clipPathUnits="userSpaceOnUse"
       id="clipPath34">
      <path
         d="M 0,999 H 1920 V 0 H 0 Z"
         id="path32"
         inkscape:connector-curvature="0" />
    </clipPath>
  </defs>
  <sodipodi:namedview
     inkscape:window-maximized="1"
     inkscape:window-y="-8"
     inkscape:window-x="1072"
     inkscape:window-height="1027"
     inkscape:window-width="1920"
     showgrid="false"
     inkscape:document-rotation="0"
     inkscape:current-layer="g18"
     inkscape:document-units="mm"
     inkscape:cy="324.0557"
     inkscape:cx="249.22334"
     inkscape:zoom="0.98994949"
     inkscape:pageshadow="2"
     inkscape:pageopacity="0.0"
     borderopacity="1.0"
     bordercolor="#666666"
     pagecolor="#ffffff"
     id="base"
     fit-margin-top="0"
     fit-margin-left="0"
     fit-margin-right="0"
     fit-margin-bottom="0"
     units="px"
     showguides="false"
     inkscape:guide-bbox="true">
    <sodipodi:guide
       position="100.16369,228.29761"
       orientation="1,0"
       id="guide1763"
       inkscape:locked="false" />
  </sodipodi:namedview>
  <metadata
     id="metadata5">
    <rdf:RDF>
      <cc:Work
         rdf:about="">
        <dc:format>image/svg+xml</dc:format>
        <dc:type
           rdf:resource="http://purl.org/dc/dcmitype/StillImage" />
        <dc:title></dc:title>
      </cc:Work>
    </rdf:RDF>
  </metadata>
  <g
     id="layer1"
     inkscape:groupmode="layer"
     inkscape:label="Ebene 1"
     transform="translate(-51.896134,-20.454917)">
    <g
       id="g18"
       inkscape:label="hud"
       transform="matrix(0.35277777,0,0,-0.35277777,-80.257029,222.86595)">
      <g
         id="g60"
         transform="matrix(1.6541976,0,0,1.6541976,640.66403,572.35934)">
        <path
           inkscape:connector-curvature="0"
           d="m 0,0 v -77.648 l 67.311,-38.866 67.245,38.827 z"
           style="fill:#0096bf;fill-opacity:1;fill-rule:nonzero;stroke:none"
           id="path62" />
      </g>
      <g
         id="g64"
         transform="matrix(1.6541976,0,0,1.6541976,640.66403,572.35934)">
        <path
           inkscape:connector-curvature="0"
           d="m 0,0 v -77.648 l 67.311,-38.866 67.245,38.827 z"
           style="fill:none;stroke:#000000;stroke-width:1;stroke-linecap:butt;stroke-linejoin:miter;stroke-miterlimit:10;stroke-dasharray:none;stroke-opacity:1"
           id="path66" />
      </g>
      <g
         id="g68"
         transform="matrix(1.6541976,0,0,1.6541976,718.12944,456.72696)">
        <path
           inkscape:connector-curvature="0"
           d="m 0,0 -14.991,-11.813 v -2.643 h 45 v 2.672 L 15.019,0 C 13.275,-1.519 12.02,-2.619 11.7,-2.896 9.974,-4.398 8.191,-4.557 7.509,-4.557 c -0.682,0 -2.464,0.156 -4.19,1.661 C 3.002,-2.623 1.747,-1.522 0,0 M 30.009,13.05 C 27.264,10.659 20.872,5.104 16.397,1.209 L 30.009,-9.506 Z m -45,0 V -9.534 L -1.378,1.209 c -4.412,3.84 -10.705,9.31 -13.613,11.841 m 0,4.893 V 15.44 C -12.28,13.082 3.27,-0.475 4.5,-1.547 5.766,-2.65 7.028,-2.756 7.509,-2.756 c 0.482,0 1.744,0.106 3.01,1.209 1.276,1.111 17.732,15.458 19.49,16.987 v 2.503 z"
           style="fill:#ffffff;fill-opacity:1;fill-rule:nonzero;stroke:none"
           id="path70" />
      </g>
      <g
         id="g72"
         transform="matrix(1.6541976,0,0,1.6541976,718.12944,456.72696)">
        <path
           inkscape:connector-curvature="0"
           d="m 0,0 -14.991,-11.813 v -2.643 h 45 v 2.672 L 15.019,0 C 13.275,-1.519 12.02,-2.619 11.7,-2.896 9.974,-4.398 8.191,-4.557 7.509,-4.557 c -0.682,0 -2.464,0.156 -4.19,1.661 C 3.002,-2.623 1.747,-1.522 0,0 Z M 30.009,13.05 C 27.264,10.659 20.872,5.104 16.397,1.209 L 30.009,-9.506 Z m -45,0 V -9.534 L -1.378,1.209 c -4.412,3.84 -10.705,9.31 -13.613,11.841 z m 0,4.893 V 15.44 C -12.28,13.082 3.27,-0.475 4.5,-1.547 5.766,-2.65 7.028,-2.756 7.509,-2.756 c 0.482,0 1.744,0.106 3.01,1.209 1.276,1.111 17.732,15.458 19.49,16.987 v 2.503 z"
           style="fill:none;stroke:#000000;stroke-width:0.5;stroke-linecap:butt;stroke-linejoin:miter;stroke-miterlimit:10;stroke-dasharray:none;stroke-opacity:1"
           id="path74" />
      </g>
    </g>
  </g>
</svg>
